<svg width="64" height="19" viewBox="0 0 64 19" fill="none" xmlns="http://www.w3.org/2000/svg">
<g clip-path="url(#clip0_27_1279)">
<mask id="mask0_27_1279" style="mask-type:luminance" maskUnits="userSpaceOnUse" x="3" y="3" width="15" height="15">
<path fill-rule="evenodd" clip-rule="evenodd" d="M6.87549 3.03771L7.45314 3.03125L13.4617 3.03383C13.5529 3.0347 13.6097 3.03599 13.6662 3.03771C13.964 3.04589 14.2647 3.06398 14.5593 3.11952C14.8543 3.17192 15.1404 3.27002 15.4082 3.41061C15.6749 3.55185 15.9195 3.73615 16.1311 3.95705C16.3427 4.1769 16.5198 4.43066 16.6559 4.70889C16.795 4.99179 16.8822 5.28159 16.9358 5.59249C16.9889 5.89908 17.0065 6.2117 17.0143 6.52174C17.0184 6.66383 17.02 6.80593 17.0204 6.94846L17.0213 7.20209V12.8159C17.0213 12.9847 17.0213 13.1539 17.0204 13.3231C17.0196 13.4652 17.0184 13.6073 17.0143 13.7494C17.0061 14.0595 16.9889 14.3725 16.9358 14.6787C16.8853 14.9864 16.7909 15.2843 16.6559 15.5623C16.5197 15.8406 16.3426 16.0945 16.1311 16.3146C15.9187 16.5354 15.6748 16.7198 15.4082 16.861C15.1404 17.0016 14.8543 17.0997 14.5593 17.1521C14.2647 17.2072 13.964 17.2253 13.6662 17.2339L12.7686 17.2412L7.07963 17.2378C7.01157 17.237 6.94352 17.2356 6.87549 17.2335C6.57766 17.2257 6.27697 17.2072 5.98242 17.1521C5.68749 17.0997 5.40156 17.0016 5.13393 16.861C4.59823 16.5772 4.16129 16.1227 3.88535 15.5623C3.75054 15.2842 3.65621 14.9863 3.60552 14.6787C3.55234 14.3725 3.53516 14.0595 3.52738 13.7499C3.52329 13.6078 3.52207 13.4652 3.52125 13.3231L3.52002 13.0687V7.45572C3.52002 7.28692 3.52002 7.11769 3.52125 6.94889C3.52207 6.8068 3.5237 6.6647 3.52738 6.52217C3.53557 6.21213 3.55275 5.89951 3.60552 5.59292C3.65618 5.28528 3.75051 4.98742 3.88535 4.70932C4.16088 4.1487 4.59776 3.69414 5.13353 3.41061C5.40129 3.27001 5.68735 3.17192 5.98242 3.11952C6.27697 3.06441 6.57766 3.04632 6.87549 3.03771Z" fill="white"/>
</mask>
<g mask="url(#mask0_27_1279)">
<path d="M3.4043 2.86523H17.7022V17.9146H3.4043V2.86523Z" fill="#19AA1E"/>
<path fill-rule="evenodd" clip-rule="evenodd" d="M3.4043 2.86523H17.7022V7.80279L3.4043 5.45166V2.86523Z" fill="#FFB919"/>
<path fill-rule="evenodd" clip-rule="evenodd" d="M3.4043 16.2676L17.7022 13.9165V17.9138H3.4043V16.2676Z" fill="#82D714"/>
<path fill-rule="evenodd" clip-rule="evenodd" d="M3.4043 5.1543L8.3951 5.97509C9.01635 5.56105 9.75544 5.33396 10.553 5.33396C11.6578 5.33396 12.6507 5.76944 13.3733 6.53369C13.4643 6.63036 13.5501 6.73114 13.6311 6.83602L17.7022 7.50543V8.1005L14.0444 7.49859C14.3182 8.04944 14.4616 8.6617 14.4625 9.28337C14.4625 10.0896 14.2914 10.8935 13.937 11.7006L13.9266 11.7252L13.7758 12.0645H13.4206C12.6858 12.0645 12.1989 12.2957 11.88 12.7056C11.63 13.0271 11.4853 13.4612 11.4368 13.9345L11.4351 13.9491L11.4281 14.0248L11.4251 14.0577L11.419 14.122C11.4004 14.3335 11.3883 14.5128 11.3818 14.6587L17.7022 13.619V14.2141L3.4043 16.5657V15.9706L9.73161 14.93L9.72901 14.7964L9.72815 14.759L9.72728 14.7394L9.72641 14.7097C9.72078 14.5479 9.70649 14.3404 9.68396 14.0887L9.67963 14.0408L9.67183 13.9583C9.62677 13.4822 9.48424 13.0431 9.23427 12.7166C8.91931 12.3039 8.43712 12.0691 7.708 12.0645H7.33022L7.17989 11.7252C6.81858 10.9099 6.64355 10.0978 6.64355 9.28337C6.64355 8.25919 7.03823 7.26876 7.73313 6.53369L7.79378 6.47122L3.4043 5.74892V5.1543Z" fill="white"/>
<path fill-rule="evenodd" clip-rule="evenodd" d="M10.5531 5.92188C12.5494 5.92188 13.9041 7.53885 13.9041 9.2835C13.9041 9.98391 13.759 10.7126 13.4202 11.4769C11.4563 11.4769 10.9716 12.957 10.8797 13.8891L10.8736 13.9506C10.8429 14.2835 10.8247 14.5503 10.8199 14.7509L10.2879 14.8385V14.8202C10.2805 14.5239 10.2614 14.228 10.2307 13.9333L10.2294 13.9169C10.1445 12.9871 9.67013 11.4769 7.68638 11.4769C7.34716 10.7126 7.20203 9.98391 7.20203 9.2835C7.20203 7.53885 8.55717 5.92188 10.5531 5.92188Z" fill="#0073FA"/>
</g>
<path fill-rule="evenodd" clip-rule="evenodd" d="M26.729 3.45459C23.9481 3.45459 21.8629 5.1951 21.8804 8.21783H24.465C24.4294 7.00874 25.1777 5.83592 26.729 5.83592C27.9051 5.83592 28.654 6.64198 28.654 7.66798C28.654 8.73083 27.8335 9.31695 26.5152 9.97677C24.7861 10.8375 23.7522 11.2406 21.8804 11.8814V15.3624H31.5055V12.9805H25.3741C26.2674 12.5976 27.1371 12.1773 27.9232 11.7898C30.0084 10.7644 31.238 9.61001 31.238 7.54017C31.238 5.04829 29.4203 3.45459 26.729 3.45459ZM35.427 6.01901H40.4179V3.63768H32.9316V15.3624H35.427V6.01901ZM44.3394 3.63768H41.844V15.3624H44.3214L48.9737 7.8695V15.3624H51.4691V3.63768H48.9737L44.3394 11.1306V3.63768ZM64 10.9653H61.4154C61.0232 12.2666 59.8291 13.1642 58.4211 13.1642C56.3709 13.1642 55.034 11.3505 55.034 9.50004C55.034 7.64956 56.3353 5.83592 58.4922 5.83592C59.9182 5.83592 61.0232 6.7341 61.4154 8.03474H64C63.6259 5.41504 61.6118 3.45459 58.4211 3.45459C54.8918 3.45459 52.5385 6.00117 52.5385 9.50004C52.5385 12.9989 54.8918 15.5455 58.4211 15.5455C61.6118 15.5455 63.6259 13.6225 64 10.9653Z" fill="white"/>
</g>
<defs>
<clipPath id="clip0_27_1279">
<rect width="64" height="19" fill="white"/>
</clipPath>
</defs>
</svg>
