<?xml version="1.0" encoding="utf-8"?>
<!-- Generator: Adobe Illustrator 24.1.2, SVG Export Plug-In . SVG Version: 6.00 Build 0)  -->
<svg version="1.1" id="Слой_1" xmlns="http://www.w3.org/2000/svg" xmlns:xlink="http://www.w3.org/1999/xlink" x="0px" y="0px"
	 viewBox="0 0 565 143.1" style="enable-background:new 0 0 565 143.1;" xml:space="preserve">
<style type="text/css">
	.st0{display:none;fill:#FFFFFF;}
</style>
<rect x="-149.7" y="-225.4" class="st0" width="841.9" height="595.3"/>
<path d="M123,104.9c0-1.8,0-48.3,0-48.2l-34.4,48.2C88.6,104.9,122.4,104.9,123,104.9z"/>
<path d="M472.7,112c0,0.6,0,1.1,0,1.6c0,8,0,16.1,0,24.1c0,0.8,0,1.6-0.3,2.3c-0.6,1.8-1.9,2.9-3.8,3c-0.3,0-0.7,0-1.1,0
	c-5.5,0-11,0-16.5,0c-0.8,0-1.7-0.1-2.4-0.4c-1.8-0.8-2.8-2.4-2.8-4.5c0-2.3,0-4.5,0-6.8c0-5.9,0-11.9,0-17.8c0-0.5,0-1,0-1.6
	c-0.6,0-1.1,0-1.6,0c-20,0-40.1,0-60.1,0c-0.4,0-0.8,0-1.2,0c-2.7-0.1-4.6-2-4.7-4.8c0-2.8,0-5.6,0-8.4c0-1.8,0-3.7,0-5.5
	c0-2.3,0.7-4.3,2-6.2c6.3-9,12.7-18,19-27.1c13.2-18.9,26.5-37.7,39.7-56.6c1.4-2,3.3-2.9,5.5-3.3c0.8-0.1,1.7-0.2,2.5-0.2
	c6.8,0,13.7,0,20.5,0c0.6,0,1.1,0,1.7,0.1c2.1,0.3,3.6,1.9,3.7,4.1c0,0.6,0,1.1,0,1.7c0,26.7,0,81.1,0,81.7l18.3,0
	c2.5,0.2,4.2,1.9,4.3,4.6c0,5,0,10,0,15c0,2.8-2,4.7-4.8,4.7L472.7,112z M446.4,30.3c-0.1,0-0.2-0.1-0.3-0.1
	c-13.3,19.4-26.6,38.7-39.9,58.2c1.4,0.3,39.3,0.3,40.2,0C446.4,69,446.4,49.6,446.4,30.3z"/>
<path d="M230.3,95.4c-3.5,0.7-6.8,0.9-10.1,0.7c-19.7-1-36.6-13.3-43.4-30.3c-2.7-6.8-3.5-14-2.9-21.3c1-10.2,4.7-19.3,11.5-27
	C192.4,9.7,201,4.7,211,2.1c7.5-1.9,15.2-2.3,23-1.8c5.8,0.4,11.5,1.4,17,3.3c8.3,2.9,15.6,7.4,21.4,14.1
	c5.7,6.6,9.1,14.3,10.4,22.8c1.1,7.3,0.8,14.6-1.5,21.6c-1.7,5.2-3.8,10.2-6.9,14.7c-4.4,6.6-8.9,13.1-13.5,19.5
	c-10,14-20.1,27.9-30.2,41.9c-0.7,0.9-1.5,1.8-2.2,2.6c-1.4,1.6-3.2,2.2-5.2,2.2c-5.4,0-10.8,0-16.1,0c-1,0-2,0-3.1,0
	c-3.3-0.1-5.3-3.5-3.7-6.4c0.3-0.5,0.6-1,1-1.4c9.4-12.9,18.7-25.7,28.1-38.6C229.7,96.4,229.9,96,230.3,95.4z M228.4,74.4
	c2.5,0,4.9-0.2,7.3-0.9c8.4-2.3,14.5-7.3,17.4-15.7c1.4-4.1,1.6-8.3,1.1-12.6c-1-9.2-5.8-15.7-14.2-19.5c-7.2-3.3-14.8-3.3-22.1-0.4
	c-7.3,2.9-12.2,8.2-14.3,15.8c-1.1,4-1.2,8.1-0.6,12.3c0.8,6.2,3.6,11.3,8.5,15.2C216.3,72.8,222.1,74.5,228.4,74.4z"/>
<path d="M541.1,23.9c-0.7,0-1.2,0-1.7,0c-5.4,0-10.8,0-16.1,0c-0.7,0-1.3,0-2-0.2c-1.9-0.5-3.1-2.2-3.1-4.2c0-3,0-6,0-9
	c0-1.9,0-3.8,0-5.7c-0.1-2.8,2.1-4.7,4.6-4.7c12.5,0.1,24.9,0,37.4,0c2.8,0,4.6,1.8,4.6,4.6c0,5.1,0,10.1,0,15.1c0,0.7,0,1.4,0,2.1
	c0,38.4,0,76.8,0,115.1c0,0.6,0,1.1,0,1.7c-0.2,2.5-1.9,4.2-4.4,4.2c-2,0-3.9,0-5.9,0c-3,0-6,0-9,0c-2.2,0-3.9-1.4-4.3-3.4
	c-0.1-0.6-0.1-1.1-0.1-1.7c0-16.9,0-33.8,0-50.7c0-20.5,0-41.1,0-61.6C541.1,25.1,541.1,24.6,541.1,23.9z"/>
<path d="M317.9,108.4c0-7.2,5.9-13.1,13.1-13.1c7.2,0,13.1,5.9,13.1,13.1c0,7.3-5.9,13.1-13.1,13.1
	C323.8,121.6,317.9,115.7,317.9,108.4z"/>
<path d="M317.9,33.2c0-7.2,5.9-13.1,13.1-13.1c7.2,0,13.1,5.9,13.1,13.1c0,7.3-5.9,13.1-13.1,13.1C323.8,46.3,317.9,40.5,317.9,33.2
	z"/>
<path d="M139.3,13c0-0.5,0-1-0.1-1.5c-0.7-5.7-4.9-10.2-10.6-11.3c-0.6-0.1-1.3-0.1-2-0.2c1.2,2.3,1.5,4.6,1.1,6.9
	c-0.5,2.4-1.7,4.4-3.6,5.9c-3.4,2.6-8.1,2.8-11.6,0.4c-1.8-1.2-3-2.8-3.8-4.7c-1.1-2.9-0.8-5.7,0.6-8.5c-5.1,0-10,0-15,0
	c0.1,0.2,0.1,0.3,0.1,0.5c1.8,3.8,2.8,7.9,3.2,12.1c0.3,3.5,0.2,7-0.5,10.5c-0.9,4.6-2.6,8.9-4.9,12.8c-1.9,3.3-4,6.4-6.2,9.5
	c-9.6,13.4-19.2,26.8-28.9,40.2c-0.4,0.6-1,1.2-1.5,1.7c-0.9,1-2.1,1.6-3.5,1.6c-0.3,0-0.6,0-0.9,0c-4.6,0-9.2,0-13.8,0
	c-0.3,0-0.6,0-0.9,0c-2-0.1-3.6-2.7-2.4-4.8c0.2-0.4,0.5-0.8,0.8-1.2C42,73,49.2,63.1,56.4,53.2c0.2-0.2,0.3-0.5,0.6-0.8
	c-1.1,0.2-2,0.3-3,0.4c-3.3,0.3-6.6,0.1-9.9-0.5c-6.8-1.3-12.8-4.1-18-8.6C18.3,36.9,14,28.4,13.6,18C13.4,12.1,14.5,6.4,17,1
	c0.1-0.3,0.3-0.6,0.4-1C17.2,0,17.1,0,17,0c-1.5,0-3,0-4.4,0c-1.5,0.1-3,0.3-4.4,0.9C3.2,2.9,0,7.7,0,12.9c0,0,0,29.2,0,58.1
	c1.4-0.8,3-1.2,4.7-1.2c5.3,0,9.6,4.3,9.6,9.6c0,5.3-4.3,9.6-9.6,9.6c-1.7,0-3.3-0.4-4.6-1.2c0,18,0,33.5,0,38.4
	c0,0.6,0,1.3,0.1,1.9c0.8,6.2,5.9,11.2,12.6,11.3c8.7,0.1,26.8,0,26.8,0v-17.7c0,0,0,0-14,0c-2.6,0-4-2.1-4-3.9c0.1-3.4,0-5.1,0-8.5
	c0-2.3,1.9-4.4,3.9-4.4l27.3,0c0.6,0,1.3,0.1,1.9,0.3c1.5,0.4,2.5,1.4,2.8,2.9c0.1,0.4,0.1,0.9,0.1,1.4c0,10.2,0,18.7,0,28.9
	c0,0.3,0,0.7,0,1h65.1c0-6.9,0-12.4,0-19.3c-0.4,0-0.8,0-1.1,0c0,0-31.3,0-46.9,0c-0.3,0-0.6,0-0.9,0c-2.4,0-3.1-3.2-3-5.2
	c0.1-3.5,0-7,0-10.4c0-1.7-0.3-3.1,0.7-4.5c5.1-7,10.1-14,15.2-21c10.2-14.2,20.5-28.3,30.7-42.5c0.7-0.9,1.4-1.3,2.5-1.7
	c1-0.4,2-0.5,3-0.5c5.2,0,16.6,0,16.6,0S139.3,19.7,139.3,13z"/>
<path d="M39.8,0c-3.3,3.7-5.3,8.7-5.3,14c0,11.6,9.4,21,21,21s21-9.4,21-21c0-5.4-2-10.3-5.4-14.1L39.8,0z"/>
</svg>
